<?xml version="1.0" standalone="no"?>
<!DOCTYPE svg PUBLIC "-//W3C//DTD SVG 1.1//EN" "http://www.w3.org/Graphics/SVG/1.1/DTD/svg11.dtd" >
<svg xmlns="http://www.w3.org/2000/svg" xmlns:xlink="http://www.w3.org/1999/xlink" version="1.1">
<metadata></metadata>
<defs>
<font id="kittithada_bold_75regular" horiz-adv-x="0" >
<font-face units-per-em="2048" ascent="1638" descent="-410" />
<missing-glyph horiz-adv-x="512" />
<glyph unicode="&#xe37;&#xe48;" d="M-758 922v143h305v102h109v-102h61v102h201v-245h-676zM-365 1229v205h201v-205h-201z" />
<glyph unicode=" "  horiz-adv-x="512" />
<glyph unicode="&#x09;" horiz-adv-x="512" />
<glyph unicode="&#xa0;" horiz-adv-x="512" />
<glyph unicode="!" horiz-adv-x="368" d="M80 0v209h211v-209h-211zM86 698v267h199v-267l-54 -409h-94z" />
<glyph unicode="&#x22;" horiz-adv-x="616" d="M111 530v435h145v-435h-145zM360 530v435h144v-435h-144z" />
<glyph unicode="#" horiz-adv-x="749" d="M45 268v121h125l25 168h-111v121h125l39 268h129l-39 -268h141l35 268h129l-35 -268h99v-121h-115l-23 -168h97v-121h-115l-37 -268h-129l37 268h-137l-39 -268h-129l39 268h-111zM299 389h141l23 168h-139z" />
<glyph unicode="$" horiz-adv-x="798" d="M33 322h184q0 -150 143 -177v265l-28 8q-271 71 -271 278q0 128 93 209q83 74 206 80v107h78v-107q301 -30 301 -307h-186q-6 118 -115 139v-231q22 -4 66 -17q128 -34 192 -94q70 -70 70 -188q0 -131 -82 -213q-88 -88 -246 -97v-114h-78v117q-143 12 -231 94 q-99 92 -96 248zM246 713q0 -65 114 -105v213q-114 -12 -114 -108zM438 141q142 12 142 121q0 86 -142 127v-248z" />
<glyph unicode="%" horiz-adv-x="1253" d="M82 698q0 121 59 194t168 73q215 0 215 -273q0 -254 -223 -254q-219 0 -219 260zM217 694q0 -155 86 -155q88 0 88 155q0 170 -82 170q-92 0 -92 -170zM299 -31l551 1008h115l-549 -1008h-117zM729 248q0 120 57.5 190t165.5 70q217 0 217 -266q0 -117 -53 -185 q-57 -75 -168 -75q-219 0 -219 266zM862 246q0 -164 86 -164q88 0 88 162q0 164 -84 164q-90 0 -90 -162z" />
<glyph unicode="&#x26;" horiz-adv-x="915" d="M43 270q0 178 213 281q-90 113 -90 205q0 95 74 157q76 64 176 64q115 0 188.5 -62t73.5 -170q0 -152 -170 -241l123 -152q27 52 35 115h163q-12 -134 -90 -238l191 -229h-230l-79 96q-111 -114 -269 -114q-137 0 -223 78t-86 210zM221 266q0 -51 41.5 -89t97.5 -38 q85 0 162 86l-166 201q-135 -64 -135 -160zM336 762q0 -54 78 -144q98 64 98 138q0 37 -26.5 64.5t-61.5 27.5q-36 0 -62 -25t-26 -61z" />
<glyph unicode="'" horiz-adv-x="372" d="M115 530v435h145v-435h-145z" />
<glyph unicode="(" horiz-adv-x="409" d="M72 412q0 339 176 616h158q-144 -273 -144 -616q0 -344 144 -617h-158q-176 280 -176 617z" />
<glyph unicode=")" horiz-adv-x="409" d="M0 -205q143 271 143 617q0 345 -143 616h158q176 -277 176 -616q0 -337 -176 -617h-158z" />
<glyph unicode="*" horiz-adv-x="550" d="M25 743l45 121l149 -67l-10 168h129l-10 -168l153 67l41 -121l-162 -45l107 -125l-107 -77l-88 143l-90 -145l-110 79l114 125z" />
<glyph unicode="+" horiz-adv-x="741" d="M51 268v146h246v245h145v-245h248v-146h-248v-248h-145v248h-246z" />
<glyph unicode="," horiz-adv-x="366" d="M76 -127q41 7 69.5 45t26.5 82h-90v209h203v-209q0 -89 -58.5 -150t-150.5 -75v98z" />
<glyph unicode="-" horiz-adv-x="542" d="M70 287v164h401v-164h-401z" />
<glyph unicode="." horiz-adv-x="366" d="M82 0v209h203v-209h-203z" />
<glyph unicode="/" horiz-adv-x="493" d="M-16 -23l374 1010h152l-375 -1010h-151z" />
<glyph unicode="0" horiz-adv-x="741" d="M27 477q0 488 342 488q346 0 346 -488q0 -495 -346 -495q-342 0 -342 495zM215 477q0 -338 154 -338q155 0 155 338q0 330 -155 330q-154 0 -154 -330z" />
<glyph unicode="1" horiz-adv-x="741" d="M98 616v142q244 -3 271 188h153v-946h-188v616h-236z" />
<glyph unicode="2" horiz-adv-x="741" d="M27 0q-6 171 118 289q13 13 240 178q131 94 131 186q0 68 -35.5 108t-95.5 40q-87 0 -127 -70q-37 -58 -31 -145h-180q-9 165 82 272t256 107q132 0 225 -78q95 -83 95 -217q0 -127 -89 -219q-39 -45 -184 -140q-119 -77 -162 -145h443v-166h-686z" />
<glyph unicode="3" horiz-adv-x="741" d="M25 319h178q6 -180 164 -180q66 0 108.5 41.5t42.5 108.5q0 95 -72 123q-36 16 -141 16v135q197 -15 197 119q0 56 -38 90.5t-95 34.5q-67 0 -105.5 -45.5t-38.5 -120.5h-178q3 147 91.5 235.5t230.5 88.5q121 0 213 -68q100 -72 100 -195q0 -155 -133 -192v-4 q76 -19 122 -76.5t46 -136.5q0 -143 -101 -227q-104 -84 -247 -84q-160 0 -252.5 89.5t-91.5 247.5z" />
<glyph unicode="4" horiz-adv-x="741" d="M23 217v176l403 553h170v-571h123v-158h-123v-217h-180v217h-393zM178 375h238v321h-4z" />
<glyph unicode="5" horiz-adv-x="741" d="M25 279h188q6 -62 48.5 -101t103.5 -39q71 0 116 53t45 130q0 79 -43.5 128.5t-117.5 49.5q-90 0 -142 -76h-170l82 522h527v-158h-388l-30 -215l2 -2q75 72 184 72q131 0 209 -89.5t78 -231.5q0 -143 -101 -244q-104 -96 -247 -96q-145 0 -238 75q-100 76 -106 222z" />
<glyph unicode="6" horiz-adv-x="741" d="M29 471q0 199 84 336q100 158 282 158q125 0 207.5 -68.5t95.5 -189.5h-180q-8 49 -42.5 81.5t-82.5 32.5q-92 0 -141 -104q-36 -73 -39 -185l2 -2q73 105 213 105q125 0 206 -86t81 -221q0 -145 -92 -248q-85 -98 -236 -98q-192 0 -285 155q-73 122 -73 334zM231 315 q0 -71 43 -123.5t109 -52.5q63 0 104 56q37 46 37 116q0 77 -38 129t-103 52q-70 0 -111 -50t-41 -127z" />
<glyph unicode="7" horiz-adv-x="741" d="M53 768v178h635v-166q-137 -119 -225 -358q-77 -222 -80 -422h-201q24 429 305 768h-434z" />
<glyph unicode="8" horiz-adv-x="741" d="M16 276q0 190 177 234v2q-138 40 -138 195q0 122 101 192q91 66 215 66q155 0 245 -93q70 -73 70 -161q0 -148 -137 -201q176 -44 176 -231q0 -141 -109 -224q-98 -73 -243 -73q-148 0 -248 71q-109 78 -109 223zM205 287q0 -72 48.5 -117t119.5 -45q70 0 116 44.5 t46 115.5q0 66 -46.5 108.5t-115.5 42.5q-73 0 -120.5 -40.5t-47.5 -108.5zM227 690q0 -61 45 -94q42 -31 99 -31q62 0 101.5 33.5t39.5 91.5q0 131 -143 131q-62 0 -102 -35.5t-40 -95.5z" />
<glyph unicode="9" horiz-adv-x="741" d="M27 618q0 145 90 246q91 101 237 101q194 0 285 -156q74 -127 74 -334q0 -199 -84 -336q-103 -157 -283 -157q-126 0 -208 68t-95 190h180q8 -49 42.5 -82t82.5 -33q92 0 141 104q32 66 39 185l-2 2q-74 -105 -213 -105q-125 0 -205.5 86t-80.5 221zM217 635 q0 -73 35 -123q39 -57 106 -57q70 0 111 50t41 126q0 71 -43 123.5t-109 52.5q-61 0 -101 -51t-40 -121z" />
<glyph unicode=":" horiz-adv-x="366" d="M82 0v209h203v-209h-203zM82 479v207h203v-207h-203z" />
<glyph unicode=";" horiz-adv-x="366" d="M76 -127q41 7 69.5 45t26.5 82h-90v209h203v-209q0 -89 -58.5 -150t-150.5 -75v98zM82 479v207h203v-207h-203z" />
<glyph unicode="&#x3c;" horiz-adv-x="741" d="M51 262v160l639 272v-155l-452 -197l452 -197v-155z" />
<glyph unicode="=" horiz-adv-x="741" d="M51 125v143h639v-143h-639zM51 414v145h639v-145h-639z" />
<glyph unicode="&#x3e;" horiz-adv-x="741" d="M51 -10v155l451 197l-451 197v155l639 -272v-160z" />
<glyph unicode="?" horiz-adv-x="741" d="M43 657q0 147 89.5 238.5t232.5 91.5q165 0 260 -86q73 -73 73 -174q0 -110 -63 -182q-37 -33 -115 -101q-63 -48 -63 -116v-39h-181v61q0 89 56 154l102 96q53 53 53 109q0 120 -116 120q-64 0 -101.5 -49t-31.5 -123h-195zM256 0v209h211v-209h-211z" />
<glyph unicode="@" horiz-adv-x="1081" d="M49 483q0 215 150 359q151 145 364 145q191 0 330 -115t139 -297q0 -184 -127 -299q-100 -92 -190 -92q-96 0 -99 76h-2q-47 -78 -147 -78q-85 0 -150 68q-61 70 -61 164q0 132 80 235q84 109 215 109q118 0 158 -94l20 73h113l-86 -350q-21 -88 12 -88q58 0 109 72 q51 71 51 176q0 157 -107 248q-103 86 -260 86q-172 0 -278 -115q-105 -114 -105 -287q0 -191 113 -295q107 -98 287 -98q179 0 290 111h113q-144 -220 -412 -220q-224 0 -368 132q-152 140 -152 374zM393 432q0 -54 30 -87.5t77 -33.5q68 0 118 68q48 67 48 135 q0 49 -31 83t-74 34q-70 0 -119 -64q-49 -67 -49 -135z" />
<glyph unicode="A" horiz-adv-x="911" d="M-10 0l360 965h215l357 -965h-217l-74 215h-348l-76 -215h-217zM332 373h246l-119 356h-2z" />
<glyph unicode="B" horiz-adv-x="942" d="M92 0v965h443q313 0 313 -240q0 -137 -129 -201q172 -49 172 -243q0 -139 -103 -213q-89 -68 -231 -68h-465zM301 166h231q152 0 152 127q0 137 -152 137h-231v-264zM301 573h215q127 0 127 117q0 111 -135 111h-207v-228z" />
<glyph unicode="C" horiz-adv-x="991" d="M51 479q0 223 127 365q125 143 342 143q159 0 275 -90q119 -93 137 -260h-201q-9 74 -70 123t-141 49q-130 0 -201 -102q-59 -89 -59 -228q0 -134 59 -223q69 -100 201 -100q192 0 219 211h201q-15 -180 -129 -285t-291 -105q-214 0 -344 148q-125 134 -125 354z" />
<glyph unicode="D" horiz-adv-x="991" d="M92 0v965h414q196 0 309 -119q123 -126 123 -359q0 -220 -104 -348q-112 -139 -326 -139h-416zM301 178h191q97 0 163 66q74 74 74 223q0 319 -272 319h-156v-608z" />
<glyph unicode="E" horiz-adv-x="868" d="M92 0v965h721v-179h-512v-206h469v-164h-469v-238h512v-178h-721z" />
<glyph unicode="F" horiz-adv-x="790" d="M92 0v965h670v-179h-461v-223h404v-164h-404v-399h-209z" />
<glyph unicode="G" horiz-adv-x="1013" d="M51 479q0 223 127 365q125 143 342 143q156 0 266 -88q121 -98 136 -252h-199q-30 162 -203 162q-130 0 -201 -102q-59 -89 -59 -228q0 -134 59 -223q69 -100 201 -100q213 0 228 209h-213v157h403v-522h-133l-23 109q-99 -132 -262 -132q-222 0 -352 148 q-117 135 -117 354z" />
<glyph unicode="H" horiz-adv-x="991" d="M92 0v965h209v-371h389v371h209v-965h-209v416h-389v-416h-209z" />
<glyph unicode="I" horiz-adv-x="397" d="M94 0v965h209v-965h-209z" />
<glyph unicode="J" horiz-adv-x="747" d="M18 276v84h189v-45q0 -159 127 -159q115 0 115 157v652h206v-662q0 -326 -319 -326q-132 0 -217 70q-101 79 -101 229z" />
<glyph unicode="K" horiz-adv-x="966" d="M92 0v965h209v-400l375 400h262l-371 -381l406 -584h-262l-281 428l-129 -131v-297h-209z" />
<glyph unicode="L" horiz-adv-x="792" d="M92 0v965h209v-787h467v-178h-676z" />
<glyph unicode="M" horiz-adv-x="1212" d="M92 0v965h293l225 -666h2l213 666h295v-965h-196v686h-2l-234 -686h-166l-231 680h-2v-680h-197z" />
<glyph unicode="N" horiz-adv-x="991" d="M92 0v965h209l399 -650h2v650h197v-965h-211l-397 647h-2v-647h-197z" />
<glyph unicode="O" horiz-adv-x="1038" d="M51 479q0 223 127 365q125 143 342 143q213 0 346 -145q123 -141 123 -363q0 -216 -123 -354q-133 -148 -346 -148q-214 0 -344 148q-125 134 -125 354zM260 479q0 -134 59 -223q69 -100 201 -100q135 0 201 100q59 89 59 223q0 136 -59 228q-71 102 -201 102t-201 -102 q-59 -89 -59 -228z" />
<glyph unicode="P" horiz-adv-x="886" d="M92 0v965h426q168 0 256 -99q76 -82 76 -215t-76 -215q-88 -98 -256 -98h-217v-338h-209zM301 502h166q180 0 180 149q0 150 -180 150h-166v-299z" />
<glyph unicode="Q" horiz-adv-x="1038" d="M51 479q0 223 127 365q125 143 342 143q213 0 346 -145q123 -141 123 -363q0 -215 -123 -356l119 -109l-98 -104l-135 123q-103 -56 -232 -56q-214 0 -344 148q-125 134 -125 354zM260 479q0 -134 59 -223q69 -100 201 -100q71 0 86 12l-90 84l96 104l111 -100 q57 83 57 223q0 136 -59 228q-71 102 -201 102t-201 -102q-59 -89 -59 -228z" />
<glyph unicode="R" horiz-adv-x="962" d="M92 0v965h512q127 0 205 -76t78 -191q0 -179 -152 -241v-2q130 -31 142 -226l6 -116q13 -88 30 -113h-206q-18 48 -23 109l-12 122q-12 78 -48.5 112t-109.5 34h-213v-377h-209zM301 528h231q146 0 146 138q0 135 -146 135h-231v-273z" />
<glyph unicode="S" horiz-adv-x="864" d="M33 322h200q0 -92 64 -138q61 -43 147 -43q185 0 185 121q0 67 -84 105q-21 11 -187 51q-292 70 -292 278q0 138 110 217q100 74 244 74q160 0 264 -72q117 -79 117 -237h-203q-9 145 -188 145q-53 0 -97 -26q-47 -35 -47 -84q0 -54 66 -82q52 -24 213 -62 q142 -34 211 -94q75 -69 75 -188q0 -140 -100 -221q-109 -89 -295 -89q-174 0 -280 84q-123 90 -123 253v8z" />
<glyph unicode="T" horiz-adv-x="813" d="M16 786v179h783v-179h-289v-786h-207v786h-287z" />
<glyph unicode="U" horiz-adv-x="987" d="M88 365v600h209v-600q0 -209 197 -209q108 0 154 49t46 160v600h207v-600q0 -388 -407 -388q-406 0 -406 388z" />
<glyph unicode="V" horiz-adv-x="843" d="M-10 965h217l213 -680h2l215 680h217l-317 -965h-236z" />
<glyph unicode="W" horiz-adv-x="1257" d="M4 965h209l149 -660h3l163 660h201l160 -664h2l153 664h209l-254 -965h-211l-159 659h-4l-156 -659h-215z" />
<glyph unicode="X" horiz-adv-x="888" d="M-8 0l334 506l-308 459h236l190 -308l191 308h235l-307 -459l334 -506h-235l-218 344l-217 -344h-235z" />
<glyph unicode="Y" horiz-adv-x="886" d="M-12 965h231l227 -400l222 400h231l-352 -596v-369h-209v373z" />
<glyph unicode="Z" horiz-adv-x="868" d="M31 0v168l516 618h-484v179h760v-168l-516 -619h529v-178h-805z" />
<glyph unicode="[" horiz-adv-x="444" d="M92 -205v1233h352v-149h-161v-932h161v-152h-352z" />
<glyph unicode="\" horiz-adv-x="493" d="M-16 987h151l375 -1010h-152z" />
<glyph unicode="]" horiz-adv-x="444" d="M0 -53h162v932h-162v149h350v-1233h-350v152z" />
<glyph unicode="^" horiz-adv-x="798" d="M70 426l241 520h176l242 -520h-162l-168 379l-168 -379h-161z" />
<glyph unicode="_" horiz-adv-x="675" d="M0 -102h676v-88h-676v88z" />
<glyph unicode="`" horiz-adv-x="344" d="M-66 977h213l127 -193h-133z" />
<glyph unicode="a" horiz-adv-x="763" d="M43 190q0 179 233 213q153 21 156 23q68 18 68 70q0 94 -123 94q-113 0 -125 -109h-186q9 236 317 236q307 0 307 -205v-391q0 -99 25 -121h-193q-14 20 -14 68q-80 -86 -232 -86q-106 0 -169.5 54t-63.5 154zM231 199q0 -90 115 -90q154 0 154 161v72q-25 -22 -97 -31 q-103 -20 -116 -26q-56 -24 -56 -86z" />
<glyph unicode="b" horiz-adv-x="817" d="M72 0v965h188v-347h4q64 99 217 99q116 0 195 -88q92 -106 92 -279q0 -177 -92 -280q-79 -88 -201 -88q-160 0 -221 104h-2v-86h-180zM254 348q0 -97 39 -153q46 -70 125 -70q80 0 123 70q41 62 41 153q0 99 -44 162t-120 63q-77 0 -120.5 -62.5t-43.5 -162.5z" />
<glyph unicode="c" horiz-adv-x="768" d="M51 340q0 167 94.5 272t257.5 105q131 0 222 -66q97 -72 106 -200h-186q-18 122 -142 122q-84 0 -127 -73q-36 -62 -36 -154q0 -86 34 -147q44 -74 125 -74q131 0 152 141h184q-19 -135 -107.5 -209.5t-228.5 -74.5q-155 0 -252 100q-96 107 -96 258z" />
<glyph unicode="d" horiz-adv-x="817" d="M43 356q0 146 78 250q83 111 227 111q140 0 209 -96h2v344h186v-965h-178v88h-2q-63 -106 -213 -106q-148 0 -231 114q-78 110 -78 260zM231 350q0 -91 41 -153q47 -72 127 -72q166 0 166 227q0 221 -166 221q-168 0 -168 -223z" />
<glyph unicode="e" horiz-adv-x="768" d="M39 348q0 160 98 264q102 105 254 105q174 0 264 -127q75 -100 75 -246q0 -20 -1 -41h-502q6 -178 172 -178q52 0 90.5 27t51.5 67h176q-59 -237 -326 -237q-159 0 -255.5 100.5t-96.5 265.5zM227 424h312q-15 149 -152 149q-78 0 -125 -53q-32 -43 -35 -96z" />
<glyph unicode="f" horiz-adv-x="454" d="M0 571v127h113v56q0 95 63 153t172 58q82 0 109 -4v-144q-62 4 -78 4q-76 0 -76 -78v-45h135v-127h-135v-571h-190v571h-113z" />
<glyph unicode="g" horiz-adv-x="817" d="M51 371q0 151 80 248.5t217 97.5q148 0 207 -105h4v86h180v-653q0 -309 -362 -309q-121 0 -201 51q-98 61 -104 172h188q24 -96 143 -96q156 0 156 174v88h-4q-59 -105 -209 -105q-148 0 -223 103q-72 93 -72 248zM240 375q0 -87 34 -142q40 -67 121 -67q76 0 123 59 q41 53 41 133q0 215 -164 215q-73 0 -114 -55.5t-41 -142.5z" />
<glyph unicode="h" horiz-adv-x="792" d="M72 0v965h188v-351h4q65 103 205 103t203 -78q51 -63 51 -209v-430h-191v395q0 172 -122 172q-150 0 -150 -200v-367h-188z" />
<glyph unicode="i" horiz-adv-x="346" d="M78 0v698h190v-698h-190zM78 805v160h190v-160h-190z" />
<glyph unicode="j" horiz-adv-x="389" d="M-27 -82q30 -6 54 -6q82 0 82 61v725h190v-729q0 -120 -54 -167.5t-194 -47.5q-48 0 -78 6v158zM109 805v160h190v-160h-190z" />
<glyph unicode="k" horiz-adv-x="768" d="M88 0v965h191v-519l241 252h223l-260 -256l289 -442h-227l-187 305l-79 -84v-221h-191z" />
<glyph unicode="l" horiz-adv-x="346" d="M78 0v965h190v-965h-190z" />
<glyph unicode="m" horiz-adv-x="1210" d="M76 0v698h180v-94h2q64 113 213 113t201 -115q49 115 211 115q252 0 252 -250v-467h-191v399q0 83 -18 117q-23 51 -97 51q-129 0 -129 -174v-393h-190v395q0 90 -12 117q-21 55 -103 55q-48 0 -86 -35q-43 -46 -43 -122v-410h-190z" />
<glyph unicode="n" horiz-adv-x="792" d="M72 0v698h180v-96h4q58 115 213 115q254 0 254 -287v-430h-191v395q0 172 -122 172q-150 0 -150 -198v-369h-188z" />
<glyph unicode="o" horiz-adv-x="817" d="M51 348q0 167 98 268t259 101q163 0 260.5 -101t97.5 -268q0 -166 -97.5 -266t-260.5 -100q-162 0 -259.5 98.5t-97.5 267.5zM240 348q0 -223 168 -223q170 0 170 223q0 225 -170 225q-168 0 -168 -225z" />
<glyph unicode="p" horiz-adv-x="817" d="M72 -246v944h180v-88h2q64 107 209 107q155 0 237 -113q76 -101 76 -262q0 -149 -76 -250q-82 -110 -227 -110q-143 0 -209 96h-4v-324h-188zM254 348q0 -223 168 -223q166 0 166 223q0 95 -39 154q-47 71 -129 71q-166 0 -166 -225z" />
<glyph unicode="q" horiz-adv-x="817" d="M43 344q0 153 78 260q82 113 231 113q152 0 213 -107h2v88h178v-944h-186v326h-4q-64 -98 -217 -98q-115 0 -197 79q-98 98 -98 283zM231 348q0 -223 166 -223q168 0 168 221q0 93 -37 154q-46 73 -127 73q-85 0 -131 -69q-39 -56 -39 -156z" />
<glyph unicode="r" horiz-adv-x="518" d="M72 0v698h180v-129h2q62 146 213 146q31 0 47 -4v-179q-28 7 -65 7q-189 0 -189 -228v-311h-188z" />
<glyph unicode="s" horiz-adv-x="714" d="M39 231h178q6 -122 145 -122q125 0 125 90q0 39 -49 63q-48 21 -137 37q-246 47 -246 203q0 109 92 168q83 47 203 47q289 0 307 -221h-180q-9 94 -129 94q-104 0 -104 -66q0 -45 67 -69q38 -15 148 -35q217 -43 217 -195q0 -126 -98 -190q-86 -53 -216 -53 q-139 0 -221 55q-99 65 -102 194z" />
<glyph unicode="t" horiz-adv-x="471" d="M8 571v127h115v211h188v-211h142v-127h-142v-346q0 -55 25 -71q18 -11 55 -11q31 0 62 7v-152q-49 -6 -115 -6q-215 0 -215 170v409h-115z" />
<glyph unicode="u" horiz-adv-x="792" d="M72 268v430h188v-401q0 -164 123 -164q149 0 149 197v368h191v-698h-180v86h-4q-64 -104 -213 -104q-142 0 -203 79q-51 63 -51 207z" />
<glyph unicode="v" horiz-adv-x="696" d="M6 698h193l149 -485h2l148 485h192l-233 -698h-215z" />
<glyph unicode="w" horiz-adv-x="1087" d="M8 698h199l129 -475l119 475h182l119 -475h2l123 475h198l-215 -698h-198l-121 473h-4l-117 -473h-199z" />
<glyph unicode="x" horiz-adv-x="716" d="M0 0l252 369l-229 329h210l125 -184l125 184h211l-229 -329l252 -369h-211l-148 225l-147 -225h-211z" />
<glyph unicode="y" horiz-adv-x="696" d="M-8 698h198l158 -473h2l150 473h205l-285 -786q-59 -158 -246 -158q-60 0 -115 6v162q34 -10 72 -10q111 0 111 86q0 21 -9 45z" />
<glyph unicode="z" horiz-adv-x="694" d="M31 0v145l368 410h-348v143h588v-143l-367 -410h392v-145h-633z" />
<glyph unicode="{" horiz-adv-x="477" d="M20 352v119q40 0 78 27q45 33 45 94v254q0 103 70 149q47 33 121 33h143v-151h-67q-78 0 -78 -99v-205q0 -138 -131 -159v-4q41 -3 80 -33q51 -39 51 -115v-217q0 -98 78 -98h67v-152h-143q-74 0 -121 33q-70 46 -70 149v265q0 55 -45 86q-38 24 -78 24z" />
<glyph unicode="|" horiz-adv-x="301" d="M78 -23v1010h143v-1010h-143z" />
<glyph unicode="}" horiz-adv-x="477" d="M0 -53h68q77 0 77 98v217q0 75 52 115q39 30 79 33v4q-131 21 -131 159v205q0 99 -77 99h-68v151h143q74 0 121 -33q70 -46 70 -149v-254q0 -61 45 -94q37 -27 78 -27v-119q-41 0 -78 -24q-45 -29 -45 -86v-265q0 -103 -70 -149q-47 -33 -121 -33h-143v152z" />
<glyph unicode="~" horiz-adv-x="798" d="M88 344q63 115 168 115q66 0 152 -45q89 -45 131 -45q69 0 116 96l56 -125q-71 -117 -168 -117q-65 0 -154 45q-89 47 -125 47q-78 0 -121 -98z" />
<glyph unicode="&#xa4;" horiz-adv-x="839" d="M8 164l148 145q-62 83 -62 193q0 114 62 188l-148 150l76 71l145 -145q80 59 193 59q119 0 188 -59l150 145l71 -71l-145 -150q59 -80 59 -188q0 -113 -59 -193l145 -145l-71 -76l-150 148q-31 -25 -84 -43q-55 -19 -104 -19q-110 0 -193 62l-145 -148zM197 502 q0 -95 63 -164q65 -68 162 -68q93 0 158 68q63 63 63 164q0 94 -63 160.5t-158 66.5q-96 0 -160 -67q-65 -74 -65 -160z" />
<glyph unicode="&#xa9;" horiz-adv-x="1081" d="M23 483q0 224 155 367q152 137 363 137q213 0 362 -137q156 -141 156 -367q0 -224 -156 -368q-150 -138 -362 -138q-213 0 -363 138q-155 146 -155 368zM160 483q0 -170 108 -284q113 -113 273 -113q157 0 270 113q111 114 111 284t-113 283q-112 115 -268 115 q-164 0 -273 -115q-108 -117 -108 -283zM268 485q0 136 78.5 219.5t210.5 83.5q97 0 164 -56t80 -154h-105q-21 102 -139 102q-73 0 -115.5 -53t-42.5 -140q0 -83 44.5 -138.5t115.5 -55.5q125 0 137 106h109q-13 -98 -82.5 -156.5t-163.5 -58.5q-128 0 -209.5 85.5 t-81.5 215.5z" />
<glyph unicode="&#xab;" horiz-adv-x="591" d="M57 276v183l209 170v-166l-121 -94l121 -99v-164zM328 276v183l209 170v-166l-121 -94l121 -99v-164z" />
<glyph unicode="&#xac;" horiz-adv-x="741" d="M43 297v90h655v-268h-82v178h-573z" />
<glyph unicode="&#xad;" horiz-adv-x="741" d="M51 268v146h639v-146h-639z" />
<glyph unicode="&#xae;" horiz-adv-x="1081" d="M23 483q0 224 155 367q152 137 363 137q213 0 362 -137q156 -141 156 -367q0 -224 -156 -368q-150 -138 -362 -138q-213 0 -363 138q-155 146 -155 368zM160 483q0 -170 108 -284q113 -113 273 -113q157 0 270 113q111 114 111 284t-113 283q-112 115 -268 115 q-164 0 -273 -115q-108 -117 -108 -283zM340 201v567h213q221 0 221 -168q0 -142 -147 -151l149 -248h-117l-137 241h-71v-241h-111zM451 530h100q111 0 111 80q0 70 -115 70h-96v-150z" />
<glyph unicode="&#xb0;" horiz-adv-x="540" d="M66 713q0 83 58 142.5t142 59.5q86 0 145.5 -58.5t59.5 -143.5t-59.5 -144t-145.5 -59q-82 0 -141 59t-59 144zM121 713q0 -60 42.5 -104t102.5 -44q62 0 105 43q45 45 45 105t-44 102.5t-106 42.5q-63 0 -104 -41t-41 -104z" />
<glyph unicode="&#xb6;" horiz-adv-x="727" d="M0 858q0 153 94 229q91 66 248 66h389v-41h-102v-1356h-62v1356h-145v-1356h-55v805q-168 0 -263 62q-104 73 -104 235z" />
<glyph unicode="&#xb7;" horiz-adv-x="337" d="M96 449q0 31 21 51t53 20q30 0 51 -21.5t21 -49.5q0 -31 -21.5 -52.5t-50.5 -21.5q-32 0 -53 21t-21 53z" />
<glyph unicode="&#xbb;" horiz-adv-x="591" d="M55 106v164l121 99l-121 94v166l209 -170v-183zM326 106v164l120 99l-120 94v166l209 -170v-183z" />
<glyph unicode="&#xd7;" horiz-adv-x="741" d="M49 125l217 217l-217 217l103 103l217 -218l219 220l102 -105l-219 -217l219 -219l-102 -103l-219 220l-217 -220z" />
<glyph unicode="&#xf7;" horiz-adv-x="741" d="M51 268v146h639v-146h-639zM258 59q0 47 34 80t79 33q47 0 79.5 -33t32.5 -80q0 -45 -32.5 -78.5t-79.5 -33.5q-44 0 -78.5 34t-34.5 78zM258 625q0 46 34 79t79 33q47 0 79.5 -32.5t32.5 -79.5q0 -45 -33 -79t-79 -34q-44 0 -78.5 34.5t-34.5 78.5z" />
<glyph unicode="&#xe00;" horiz-adv-x="204" />
<glyph unicode="&#xe01;" horiz-adv-x="872" d="M82 0v666q125 168 354 168q158 0 256.5 -76t98.5 -209v-549h-201v535q0 59 -45 95t-115 36q-99 0 -147 -60v-606h-201z" />
<glyph unicode="&#xe02;" horiz-adv-x="804" d="M41 324q0 86 51 157q48 70 113 103l-117 135l166 115l190 -246q-206 -99 -206 -264q0 -68 38 -115q46 -55 119 -55q55 0 91 35t36 85v545h201v-536q0 -128 -94 -213q-93 -84 -234 -84q-150 0 -254 96q-100 93 -100 242z" />
<glyph unicode="&#xe03;" horiz-adv-x="815" d="M-2 707l102 122q49 -27 66 -55l57 45h180v-258q-155 -94 -155 -237q0 -70 39 -115q46 -55 119 -55q55 0 90.5 35t35.5 85v545h201v-536q0 -128 -94 -213q-93 -84 -233 -84q-150 0 -254 96q-101 96 -101 242q0 86 51 157q48 70 113 103v80l-74 -54q-20 24 -39 37 q-53 44 -104 60z" />
<glyph unicode="&#xe04;" horiz-adv-x="892" d="M82 0v539q0 129 102 211q106 84 262 84q161 0 261 -84q104 -82 104 -211v-539h-201v551q0 51 -45 83t-119 32t-118.5 -32t-44.5 -83v-68h225v-164h-225v-319h-201z" />
<glyph unicode="&#xe05;" horiz-adv-x="917" d="M82 0v549q0 114 68 188q73 85 206 97l103 -84l104 84q131 -12 205 -95q68 -77 68 -190v-549h-201v553q0 77 -68 98l-102 -94l-115 94q-67 -21 -67 -98v-70h249v-164h-249v-319h-201z" />
<glyph unicode="&#xe06;" horiz-adv-x="884" d="M-6 707l102 122q43 -22 66 -55l57 45h187v-215q0 -40 -58 -86q-55 -43 -55 -80v-147q0 -55 55 -98q58 -43 119 -43q60 0 97.5 33.5t37.5 84.5v551h201v-575q0 -123 -82 -193q-74 -65 -178 -65q-162 0 -250 116v-102h-201v449q0 43 60 88q59 44 59 77v50l-74 -54 q-20 24 -39 37q-53 44 -104 60z" />
<glyph unicode="&#xe07;" horiz-adv-x="811" d="M-8 819h201l149 -647q107 -3 170 66q55 61 55 163q0 250 -272 238v182q20 2 59 2q416 0 416 -422q0 -190 -126.5 -300.5t-346.5 -110.5q-61 0 -113 8z" />
<glyph unicode="&#xe08;" horiz-adv-x="827" d="M-6 674q165 160 391 160q179 0 291 -115q110 -113 110 -293q0 -184 -120 -307q-128 -125 -351 -125q-40 0 -63 2l-74 344h-90v164h254l68 -332q74 13 126 89t52 165q0 99 -62 164q-69 72 -178 72q-145 0 -233 -113z" />
<glyph unicode="&#xe09;" horiz-adv-x="841" d="M29 305v164h258v-209q0 -106 106 -106q63 0 117 45q53 47 53 98v225q0 64 -43 104t-114 40q-134 0 -168 -117h-189q21 140 133 217q103 68 232 68q146 0 241 -74q105 -80 105 -209v-469l28 -82h-225v102q-76 -116 -221 -116q-109 0 -172 57q-78 69 -78 195v67h-63z" />
<glyph unicode="&#xe0a;" horiz-adv-x="808" d="M82 45v774h201v-655q37 -13 92 -10q85 3 137.5 54t52.5 126q0 208 -246 258l248 237l187 -75l-156 -140q168 -94 168 -288q0 -151 -100 -238q-100 -97 -291 -100q-136 -3 -293 57z" />
<glyph unicode="&#xe0b;" horiz-adv-x="837" d="M-23 707l103 122q45 -27 65 -55l58 45h180v-203q0 -46 -35 -90q-35 -41 -35 -77v-285q40 -13 93 -10q85 3 137.5 54t52.5 126q0 191 -205 258l205 237l188 -75l-145 -148q158 -93 158 -280q0 -147 -101 -238q-106 -97 -290 -100q-136 -3 -293 57v408q0 43 41 84 q41 44 41 77v50l-74 -54q-13 19 -39 37q-53 43 -105 60z" />
<glyph unicode="&#xe0c;" horiz-adv-x="1361" d="M82 0v666q125 168 354 168q158 0 256.5 -76t98.5 -209v-244q0 -69 55 -115q52 -40 110 -40q123 0 123 120v549h201v-577q0 -120 -66.5 -188t-173.5 -68q-155 0 -249 116v-102h-201v535q0 59 -45 95t-115 36q-99 0 -147 -60v-442h127v-164h-328z" />
<glyph unicode="&#xe0d;" horiz-adv-x="1363" d="M82 0v666q125 168 354 168q158 0 256.5 -76t98.5 -209v-57q0 -111 149 -111q64 0 102.5 31.5t38.5 85.5v321h201v-530q0 -132 -100 -218.5t-260 -86.5q-193 0 -336 73l82 154q104 -66 215 -66q183 0 198 134q-73 -58 -188 -58q-303 0 -303 256v58q0 59 -45 95t-115 36 q-99 0 -147 -60v-442h127v-164h-328z" />
<glyph unicode="&#xe0e;" horiz-adv-x="892" d="M20 0v164h82v502q125 168 355 168q159 0 256.5 -76t97.5 -209v-856h-184l-138 110l-143 -110h-326v164h283l193 129l114 -88v637q0 59 -44.5 95t-114.5 36q-97 0 -148 -60v-606h-283z" />
<glyph unicode="&#xe0f;" horiz-adv-x="892" d="M20 0v164h82v502q125 168 355 168q159 0 256.5 -76t97.5 -209v-856h-193l-79 74l-103 -107l-102 107l-78 -74h-236v164h199l127 106l90 -98l90 98l84 -72v644q0 59 -44.5 95t-114.5 36q-97 0 -148 -60v-606h-283z" />
<glyph unicode="&#xe10;" horiz-adv-x="833" d="M-6 674q165 160 391 160q101 0 168 -33l63 90l191 -74l-105 -129q84 -113 84 -262q0 -184 -120 -307q-128 -125 -351 -125q-40 0 -63 2l-74 344h-90v164h254l68 -332q74 13 126 89t52 165q0 99 -62 164q-69 72 -178 72q-145 0 -233 -113zM27 -143h206l105 84l90 -86 l90 88l74 -64v80l-31 57h230v-323h-197l-72 67l-92 -98l-102 100l-74 -69h-227v164z" />
<glyph unicode="&#xe11;" horiz-adv-x="921" d="M-14 707l102 122q43 -22 66 -55l57 45h180v-203q0 -48 -41 -92q-39 -42 -39 -75v-50q0 -24 -10 -137h4q20 61 80 209l170 352q151 3 218 -51t67 -188v-584h-201v586q0 39 -14 39l-293 -625h-219v453q0 45 45 84q45 42 45 77v50l-74 -54q-13 19 -39 37q-53 44 -104 60z " />
<glyph unicode="&#xe12;" horiz-adv-x="1404" d="M41 393q3 162 94 281q92 120 227 155l105 -84l86 76q278 -21 278 -280v-236q0 -68 56 -115q52 -40 110 -40q123 0 123 120v549h201v-577q0 -120 -66.5 -188t-173.5 -68q-156 0 -250 116v-102h-200v555q0 67 -51 82l-107 -100l-119 98q-107 -88 -110 -242q-3 -97 30 -153 q35 -66 101 -66q49 0 94 45l115 -133q-90 -96 -215 -96q-152 0 -241 109t-87 294z" />
<glyph unicode="&#xe13;" horiz-adv-x="1361" d="M82 0v666q125 168 354 168q158 0 256.5 -76t98.5 -209v-279q0 -120 122 -120q64 0 115 44.5t51 110.5v514h201v-819h-201v102q-94 -116 -250 -116q-104 0 -167 63q-72 72 -72 193v293q0 59 -45 95t-115 36q-99 0 -147 -60v-442h127v-164h-328z" />
<glyph unicode="&#xe14;" horiz-adv-x="899" d="M41 393q3 178 125 309q123 132 299 132q249 0 352 -183v-651h-201v602q-34 55 -143 55q-100 0 -164 -82q-59 -72 -65 -182q-3 -94 32 -153q38 -66 107 -66q56 0 100 41l107 -139q-89 -86 -211 -86q-163 0 -251.5 107.5t-86.5 295.5z" />
<glyph unicode="&#xe15;" horiz-adv-x="913" d="M41 393q3 162 94 281q92 120 227 155l105 -84l86 76q278 -21 278 -280v-541h-200v555q0 67 -51 82l-107 -100l-119 98q-107 -88 -110 -242q-3 -97 30 -153q35 -66 101 -66q49 0 94 45l115 -133q-90 -96 -215 -96q-152 0 -241 109t-87 294z" />
<glyph unicode="&#xe16;" horiz-adv-x="872" d="M82 0v666q125 168 354 168q158 0 256.5 -76t98.5 -209v-549h-201v535q0 59 -45 95t-115 36q-99 0 -147 -60v-442h127v-164h-328z" />
<glyph unicode="&#xe17;" horiz-adv-x="874" d="M82 0v819h201v-102q89 117 249 117q106 0 179 -64q82 -73 82 -195v-575h-201v551q0 51 -38 85t-97 34q-58 0 -119 -43q-55 -43 -55 -99v-528h-201z" />
<glyph unicode="&#xe18;" horiz-adv-x="796" d="M51 596q0 103 107 170q103 65 239 65q135 0 230.5 -68.5t115.5 -182.5h-204q-21 86 -160 86q-54 0 -89.5 -16.5t-35.5 -41.5q0 -42 172 -63q319 -40 319 -285q0 -143 -112 -209q-97 -63 -266 -63q-150 0 -293 55v287l196 51v-217q52 -10 97 -10q72 0 125 32t53 84 q0 98 -164 113q-330 35 -330 213z" />
<glyph unicode="&#xe19;" horiz-adv-x="874" d="M82 244v575h201v-551q0 -51 37.5 -84.5t97.5 -33.5q62 0 117 43q57 42 57 98v528h201v-819h-201v102q-88 -116 -250 -116q-104 0 -178 65q-82 70 -82 193z" />
<glyph unicode="&#xe1a;" horiz-adv-x="872" d="M82 281v538h201v-538q0 -127 153 -127q154 0 154 127v538h201v-538q0 -132 -96 -213.5t-259 -81.5q-162 0 -258 81.5t-96 213.5z" />
<glyph unicode="&#xe1b;" horiz-adv-x="872" d="M82 281v538h201v-538q0 -127 153 -127q154 0 154 127v690h201v-690q0 -132 -96 -213.5t-259 -81.5q-162 0 -258 81.5t-96 213.5z" />
<glyph unicode="&#xe1c;" horiz-adv-x="1097" d="M0 819h334v-162h-101l84 -329l170 491h121l174 -491l133 491h181l-230 -819h-141l-178 518l-176 -518h-140z" />
<glyph unicode="&#xe1d;" horiz-adv-x="1097" d="M0 819h334v-162h-101l84 -329l170 491h121l174 -491l172 643h181l-271 -971h-139l-178 516l-176 -516h-140z" />
<glyph unicode="&#xe1e;" horiz-adv-x="1097" d="M0 819h190l127 -491l170 491h121l174 -491l133 491h181l-230 -819h-141l-178 518l-176 -518h-140z" />
<glyph unicode="&#xe1f;" horiz-adv-x="1097" d="M0 819h190l127 -491l170 491h121l174 -491l172 643h181l-271 -971h-139l-178 516l-176 -516h-140z" />
<glyph unicode="&#xe20;" horiz-adv-x="892" d="M20 0v164h82v502q125 168 355 168q159 0 256.5 -76t97.5 -209v-549h-201v535q0 59 -44.5 95t-114.5 36q-97 0 -148 -60v-606h-283z" />
<glyph unicode="&#xe21;" horiz-adv-x="874" d="M82 0v819h201v-528q0 -55 55 -98q58 -43 119 -43q60 0 97.5 33.5t37.5 84.5v551h201v-575q0 -125 -82 -193q-74 -65 -179 -65q-161 0 -249 116v-102h-201z" />
<glyph unicode="&#xe22;" horiz-adv-x="860" d="M41 268q0 137 152 181q-136 35 -136 153q0 93 82 160t199 67q83 0 162 -28v-166q-54 31 -121 31q-115 0 -115 -68t144 -68q35 0 92 11v-174h-90q-164 0 -164 -103q0 -50 50.5 -80t129.5 -30q94 0 152 43v622h200v-674q-130 -157 -352 -157q-178 0 -285 82 q-100 75 -100 198z" />
<glyph unicode="&#xe23;" horiz-adv-x="804" d="M33 289h196q9 -131 174 -131q61 0 107.5 28.5t46.5 69.5q0 71 -158 86q-344 38 -344 221q0 120 103 195q94 76 235 76q317 0 369 -261h-201q-11 39 -58 66t-106 27t-99 -23.5t-40 -54.5q0 -49 176 -70q146 -15 219 -57q105 -59 105 -182q0 -135 -111 -218 q-97 -75 -252 -75q-152 0 -252 75q-107 82 -110 228z" />
<glyph unicode="&#xe24;" horiz-adv-x="872" d="M82 0v666q125 168 354 168q158 0 256.5 -76t98.5 -209v-856h-201v842q0 59 -45 95t-115 36q-99 0 -147 -60v-442h127v-164h-328z" />
<glyph unicode="&#xe25;" horiz-adv-x="886" d="M41 270q0 126 102.5 203.5t274.5 77.5q112 0 186 -39v82q-38 72 -158 72q-142 0 -176 -105h-213q24 129 144 205q109 68 252 68q136 0 239 -62q93 -62 113 -139v-633h-201v291q-59 80 -192 80q-72 0 -119 -30t-47 -77q0 -37 30 -61.5t74 -24.5q56 0 99 29l104 -144 q-88 -73 -225 -73q-127 0 -207 80.5t-80 199.5z" />
<glyph unicode="&#xe26;" horiz-adv-x="892" d="M20 0v164h82v502q125 168 355 168q159 0 256.5 -76t97.5 -209v-856h-201v842q0 59 -44.5 95t-114.5 36q-97 0 -148 -60v-606h-283z" />
<glyph unicode="&#xe27;" horiz-adv-x="800" d="M41 317h197q40 -155 159 -155q85 0 125 76q37 67 37 172q0 110 -37 174q-40 75 -123 75q-124 0 -159 -157h-199q25 160 117.5 246t238.5 86q171 0 267 -114t96 -310t-96 -310t-267 -114q-147 0 -239 85t-117 246z" />
<glyph unicode="&#xe28;" horiz-adv-x="892" d="M82 0v539q0 129 102 211q106 84 262 84q82 0 140 -21l59 78l191 -74l-91 -104q66 -78 66 -174v-539h-201v551q0 51 -45 83t-119 32t-118.5 -32t-44.5 -83v-68h225v-164h-225v-319h-201z" />
<glyph unicode="&#xe29;" horiz-adv-x="892" d="M82 281v538h201v-538q0 -127 153 -127q154 0 154 127v81h-203v185l82 -21h121v293h201v-293h90v-164h-90v-81q0 -132 -96 -213.5t-259 -81.5q-162 0 -258 81.5t-96 213.5z" />
<glyph unicode="&#xe2a;" horiz-adv-x="890" d="M41 270q0 126 102.5 203.5t274.5 77.5q112 0 186 -39v82q-38 72 -158 72q-142 0 -176 -105h-213q24 129 144 205q109 68 252 68q76 0 137 -23l57 80l191 -70l-84 -104q40 -46 51 -84v-633h-201v291q-59 80 -192 80q-72 0 -119 -30t-47 -77q0 -37 30 -61.5t74 -24.5 q56 0 99 29l104 -144q-88 -73 -225 -73q-127 0 -207 80.5t-80 199.5z" />
<glyph unicode="&#xe2b;" horiz-adv-x="868" d="M82 0v819h197v-239l309 249l200 -51l-190 -157q188 -41 188 -213v-408h-194v352q0 143 -131 158l-182 -152v-358h-197z" />
<glyph unicode="&#xe2c;" horiz-adv-x="1097" d="M0 819h199l125 -467l159 467h129l166 -471l53 213q5 25 5 29q0 65 -68 65h-47v164h76q97 0 112 55l27 89h203l-41 -146q-25 -88 -127 -115q57 -29 57 -106q0 -24 -6 -45l-156 -551h-147l-172 502l-170 -502h-146z" />
<glyph unicode="&#xe2d;" horiz-adv-x="946" d="M41 410q0 15 4 61h414v-164h-195q52 -133 207 -133q102 0 164.5 65.5t62.5 170.5q0 104 -62 168.5t-165 64.5q-139 0 -197 -111h-217q102 302 414 302q190 0 309 -119q121 -121 121 -305q0 -185 -121 -306q-118 -118 -309 -118q-193 0 -311 118q-119 119 -119 306z" />
<glyph unicode="&#xe2e;" horiz-adv-x="946" d="M41 410q0 15 4 61h414v-164h-195q52 -133 207 -133q102 0 164.5 65.5t62.5 170.5q0 104 -62 168.5t-165 64.5q-139 0 -197 -111h-217q102 302 414 302q91 0 170 -31l66 88l192 -72l-100 -125q102 -114 102 -284q0 -185 -121 -306q-118 -118 -309 -118q-193 0 -311 118 q-119 119 -119 306z" />
<glyph unicode="&#xe2f;" horiz-adv-x="817" d="M23 610q0 94 78.5 156.5t195.5 62.5q79 0 166 -34v-154q-56 27 -133 27q-107 0 -107 -58q0 -57 109 -57q116 0 205 86v180h198v-819h-198v457q-101 -70 -218 -70q-141 0 -223 70q-73 64 -73 153z" />
<glyph unicode="&#xe30;" horiz-adv-x="421" d="M51 102v228h201v-84h129v-144h-330zM51 489v228h201v-84h129v-144h-330z" />
<glyph unicode="&#xe31;" d="M-481 922v245h200v-102h445v-143h-645z" />
<glyph unicode="&#xe32;" horiz-adv-x="622" d="M33 602v184q98 48 200 48q146 0 226 -86t80 -226v-522h-191v504q0 147 -153 147q-86 0 -162 -49z" />
<glyph unicode="&#xe33;" horiz-adv-x="620" d="M-328 1047q0 57 41.5 96t104.5 39t104 -39t41 -96t-41.5 -96.5t-103.5 -39.5q-63 0 -104.5 39.5t-41.5 96.5zM-238 1047q0 -21 16.5 -36.5t39.5 -15.5t39 15.5t16 36.5t-16 36t-39 15t-39.5 -15.5t-16.5 -35.5zM33 602v184q98 48 200 48q146 0 226 -86t80 -226v-522h-191 v504q0 147 -153 147q-86 0 -162 -49z" />
<glyph unicode="&#xe34;" d="M-758 922v143h676v-143h-676z" />
<glyph unicode="&#xe35;" d="M-758 922v143h475v102h201v-245h-676z" />
<glyph unicode="&#xe36;" d="M-758 922v143h441q6 52 43 84.5t92 32.5q60 0 98.5 -37.5t38.5 -93.5t-38.5 -92.5t-98.5 -36.5h-576zM-233 1051q0 -52 51 -52t51 52q0 51 -51 51t-51 -51z" />
<glyph unicode="&#xe37;" d="M-758 922v143h305v102h109v-102h61v102h201v-245h-676z" />
<glyph unicode="&#xe38;" d="M-365 -82h283v-276h-201v153h-82v123z" />
<glyph unicode="&#xe39;" d="M-602 -82h237v-141q23 -10 41 -10q41 0 41 32v119h201v-143q0 -69 -76 -109q-65 -35 -159 -35q-144 0 -222 78v86h-63v123z" />
<glyph unicode="&#xe3a;" d="M-315 -205q0 50 39 86.5t94 36.5t94 -36.5t39 -86.5t-39 -86.5t-94 -36.5t-94 36.5t-39 86.5z" />
<glyph unicode="&#xe3f;" horiz-adv-x="942" d="M92 0v965h338v127h78v-127h27q313 0 313 -240q0 -137 -129 -201q172 -49 172 -243q0 -139 -103 -213q-89 -68 -231 -68h-49v-137h-78v137h-338zM301 166h129v264h-129v-264zM301 573h129v228h-129v-228zM508 166h24q152 0 152 127q0 137 -152 137h-24v-264zM508 573h8 q127 0 127 117q0 111 -135 111v-228z" />
<glyph unicode="&#xe40;" horiz-adv-x="405" d="M102 0v819h201v-819h-201z" />
<glyph unicode="&#xe41;" horiz-adv-x="749" d="M102 0v819h201v-819h-201zM446 0v819h201v-819h-201z" />
<glyph unicode="&#xe42;" horiz-adv-x="446" d="M-6 1112q0 127 196 127h291v-154h-211q-57 0 -57 -12q0 -2 15 -14.5t35.5 -30.5t31.5 -31q29 -43 29 -94v-903h-201v895q0 57 -66 117q-63 57 -63 100z" />
<glyph unicode="&#xe43;" horiz-adv-x="446" d="M-88 1036q0 111 73 177.5t185 66.5q111 0 181.5 -59t70.5 -148q0 -46 -49 -98q-49 -49 -49 -96v-879h-201v899q0 59 49 105q51 42 51 73q0 58 -59 58q-74 0 -74 -99h-178z" />
<glyph unicode="&#xe44;" horiz-adv-x="405" d="M-143 1151l114 119l123 -113l123 100l209 -213q-123 -92 -123 -208v-836h-201v817q0 113 117 221l-26 27l-121 -107z" />
<glyph unicode="&#xe45;" horiz-adv-x="643" d="M33 602v184q98 48 200 48q154 0 242 -91q84 -93 84 -221v-829h-190v811q0 68 -48.5 107.5t-125.5 39.5q-86 0 -162 -49z" />
<glyph unicode="&#xe46;" horiz-adv-x="839" d="M33 385v174q0 128 68 199t192 71l100 -77l103 77q260 0 260 -270v-866h-201v895q0 70 -45 76l-111 -89l-125 89q-45 -6 -45 -76v-41h136v-162h-332z" />
<glyph unicode="&#xe47;" d="M-698 922v88q0 96 61.5 155.5t171.5 59.5h383v-103h-377q-45 0 -72.5 -24t-27.5 -56h74l108 60l105 -60h127v-120h-138l-94 55l-98 -55h-223z" />
<glyph unicode="&#xe48;" d="M-283 1229v205h201v-205h-201z" />
<glyph unicode="&#xe49;" d="M-412 1339v111h111q104 0 104 -88v-4h228v-129h-389v90q0 20 -19 20h-35z" />
<glyph unicode="&#xe4a;" d="M-446 1229v98q0 123 139 123h45l72 -49l65 49h45q133 0 133 -111v-12h105v-98h-258v94q0 13 -13 23l-77 -64l-91 64q-12 -9 -12 -23v-57l19 -37h-172z" />
<glyph unicode="&#xe4b;" d="M-356 1307v112h92v78h160v-78h92v-112h-92v-78h-160v78h-92z" />
<glyph unicode="&#xe4c;" d="M-307 1147v57q0 129 145 129h146v-121h-60q-51 0 -51 -43v-22h-180z" />
<glyph unicode="&#xe4d;" d="M-328 1047q0 57 41.5 96t104.5 39t104 -39t41 -96t-41.5 -96.5t-103.5 -39.5q-63 0 -104.5 39.5t-41.5 96.5zM-238 1047q0 -21 16.5 -36.5t39.5 -15.5t39 15.5t16 36.5t-16 36t-39 15t-39.5 -15.5t-16.5 -35.5z" />
<glyph unicode="&#xe4e;" d="M-571 1057q0 56 53.5 97.5t128.5 47.5q-53 21 -53 76q0 79 84 130.5t221 51.5q60 0 112 -8v-119q-52 15 -110 15q-71 0 -119.5 -19.5t-48.5 -52.5q0 -40 80 -31v-106q-60 6 -133 -13q-78 -21 -78 -59q0 -33 57 -33q48 0 101 29l57 -98q-82 -43 -168 -43q-82 0 -133 37 t-51 98z" />
<glyph unicode="&#xe4f;" horiz-adv-x="983" d="M72 410q0 174 123 297q122 122 297 122q174 0 296 -122q123 -123 123 -297t-123 -297t-296 -123q-174 0 -297 123t-123 297zM133 410q0 -146 105 -254q108 -105 254 -105t251 105q107 110 107 254q0 148 -107 252q-103 106 -251 106t-254 -106q-105 -105 -105 -252z M236 410q0 107 73 180q76 76 183 76t180 -76q76 -73 76 -180t-76 -183q-73 -73 -180 -73t-183 73q-73 76 -73 183z" />
<glyph unicode="&#xe50;" horiz-adv-x="835" d="M51 315q0 132 103 232q101 98 264 98q160 0 264 -98q102 -95 102 -232q0 -136 -100 -229q-103 -100 -266 -100t-266 100q-101 96 -101 229zM246 315q0 -64 48.5 -110.5t121.5 -46.5q72 0 122 46.5t50 110.5t-49.5 110t-122.5 46q-74 0 -122 -46t-48 -110z" />
<glyph unicode="&#xe51;" horiz-adv-x="890" d="M51 332q0 139 119 227q115 86 268 86q167 0 285 -92q117 -88 117 -238q0 -162 -140 -284q-135 -114 -321 -140l-76 121q156 19 250 92.5t94 182.5q0 85 -57.5 137.5t-149.5 52.5q-79 0 -136.5 -43.5t-57.5 -103.5q0 -58 28 -80q-4 62 42 105.5t114 43.5q66 0 112 -42 t46 -99q0 -83 -67.5 -137.5t-174.5 -54.5q-119 0 -207 73q-88 76 -88 193zM375 256q0 -49 55 -49t55 49q0 47 -55 47t-55 -47z" />
<glyph unicode="&#xe52;" horiz-adv-x="1161" d="M-41 764l156 117q157 -95 157 -256v-389q0 -82 90 -82h521v270q0 56 -41 68l-123 -101l-141 101q-50 0 -50 -39q53 -6 84 -44t31 -90q0 -57 -45 -96t-111 -39t-109.5 39t-43.5 96v99q0 111 78 173.5t198 53.5l103 -78l104 78q120 6 193 -61q67 -64 67 -166v-418h-792 q-203 0 -203 156v450q0 39 -29 86q-36 55 -94 72zM440 322q0 -46 49 -46q50 0 50 46q0 45 -50 45q-49 0 -49 -45z" />
<glyph unicode="&#xe53;" horiz-adv-x="952" d="M82 160v221q0 237 272 264l123 -84l125 84q268 -24 268 -264v-381h-196v365q0 77 -68 98l-123 -94l-135 94q-67 -21 -67 -98v-41q68 -6 113.5 -53t45.5 -111q0 -69 -52.5 -119.5t-127.5 -50.5q-77 0 -127.5 48.5t-50.5 121.5zM203 160q0 -58 57 -58q66 0 66 58 q0 57 -66 57q-57 0 -57 -57z" />
<glyph unicode="&#xe54;" horiz-adv-x="960" d="M51 307q-6 141 113 240q112 92 270 92h232q50 0 65 61q12 44 12 144h195q3 -371 -242 -371h-262q-79 0 -134 -46.5t-54 -119.5q3 -64 52.5 -103.5t119.5 -39.5q55 0 86 8q-35 41 -35 102q0 63 50 107.5t118 44.5q69 0 117.5 -43.5t48.5 -103.5q0 -57 -29 -101 q116 -20 180 -72l-112 -135q-103 56 -176 56q-22 0 -109 -17q-82 -16 -147 -16q-144 0 -248 78q-108 85 -111 235zM578 279q0 -50 59 -50q57 0 57 50q0 51 -57 51q-59 0 -59 -51z" />
<glyph unicode="&#xe55;" horiz-adv-x="960" d="M51 309q-3 108 66 190.5t190 108.5q-20 30 -20 68q0 70 54 117t138 47q87 0 140 -43t53 -115q0 -32 -10 -45h14q104 0 104 207h191q0 -167 -73.5 -269t-195.5 -102h-239q-95 0 -158.5 -45.5t-60.5 -118.5q3 -65 53 -105t121 -40q55 0 86 8q-35 41 -35 102q0 63 50 107.5 t118 44.5q69 0 117.5 -43.5t48.5 -103.5q0 -57 -29 -101l84 -16q51 -16 96 -49l-112 -142q-103 56 -176 56q-22 0 -109 -17q-82 -16 -147 -16q-146 0 -246 80q-110 85 -113 235zM416 678q0 -55 63 -55q64 0 64 55t-64 55q-63 0 -63 -55zM578 279q0 -50 59 -50q57 0 57 50 q0 51 -57 51q-59 0 -59 -51z" />
<glyph unicode="&#xe56;" horiz-adv-x="897" d="M-106 735l153 109q154 -102 217 -254q91 55 205 55q161 0 270 -92q107 -88 107 -234q0 -145 -117 -239q-113 -94 -285 -94q-150 0 -247 75q-93 72 -93 164q0 69 51 117.5t126 48.5q73 0 123.5 -47t50.5 -111q0 -43 -21 -77h10q86 0 146.5 46t60.5 117q0 69 -54.5 114.5 t-137.5 45.5q-106 0 -201 -71l-133 30q-21 99 -78 168q-48 58 -153 129zM221 233q0 -49 58 -49q59 0 59 49q0 50 -59 50q-58 0 -58 -50z" />
<glyph unicode="&#xe57;" horiz-adv-x="1185" d="M82 160v221q0 237 272 264l103 -84l104 84q268 -24 268 -264v-227q47 0 65.5 13t18.5 54v404q0 160 158 256l156 -117q-59 -18 -94 -72q-29 -47 -29 -86v-405q0 -92 -61.5 -146.5t-161.5 -54.5h-248v365q0 77 -68 98l-102 -94l-115 94q-67 -21 -67 -98v-41 q68 -6 113.5 -53t45.5 -111q0 -69 -52.5 -119.5t-127.5 -50.5q-77 0 -127.5 48.5t-50.5 121.5zM203 160q0 -58 57 -58q66 0 66 58q0 57 -66 57q-57 0 -57 -57z" />
<glyph unicode="&#xe58;" horiz-adv-x="987" d="M51 307q0 155 133 248q128 90 316 90q128 0 211 -14q41 77 59 217l188 -27q-30 -225 -159 -381q-158 41 -279 41t-197.5 -49.5t-76.5 -124.5q0 -79 67 -119l140 123l180 -145l16 8q-39 20 -39 94q0 58 46.5 101t113.5 43q68 0 116.5 -40.5t49.5 -101.5q6 -134 -174 -219 l-150 -71l-153 114l-115 -112q-130 31 -205 112q-88 88 -88 213zM715 262q0 -49 55 -49t55 49q0 51 -55 51q-23 0 -39 -15t-16 -36z" />
<glyph unicode="&#xe59;" horiz-adv-x="1007" d="M47 330q0 141 103 227q101 88 256 88q122 0 208 -63q51 75 160 75q61 0 111 -26q25 85 4 200h190q2 -20 2 -53q0 -231 -131 -368l-63 18q-21 55 -78 55q-53 0 -66 -32q107 -153 152 -439l-186 -20q-27 224 -80 336q-71 151 -215 151q-74 0 -122 -43.5t-48 -107.5 q0 -54 28 -105q13 54 60.5 87.5t109.5 33.5q74 0 125 -49.5t51 -116.5q0 -78 -67.5 -131t-161.5 -53q-149 0 -246 100q-96 104 -96 236zM383 174q0 -49 57 -49q58 0 58 49q0 53 -58 53q-57 0 -57 -53z" />
<glyph unicode="&#xe5a;" horiz-adv-x="1056" d="M23 610q0 94 78.5 156.5t195.5 62.5q79 0 166 -34v-154q-56 27 -133 27q-107 0 -107 -58q0 -57 109 -57q116 0 205 86v180h198v-248q56 21 103 68v180h137v-819h-137v457q-31 -22 -103 -51v-406h-198v457q-101 -70 -218 -70q-141 0 -223 70q-73 64 -73 153z" />
<glyph unicode="&#xe5b;" horiz-adv-x="1576" d="M61 414q0 153 80 262q81 106 199 106q103 0 171.5 -78t68.5 -196q0 -92 -46.5 -152.5t-115.5 -60.5q-62 0 -104 44t-42 110q0 64 42.5 110.5t101.5 46.5h-4q-15 45 -70 45q-60 0 -97.5 -66.5t-37.5 -172.5q0 -100 50.5 -168t125.5 -68q94 0 166 96q72 97 90 248 q12 103 80 103q48 0 94 -97v2q0 74 64 74q40 0 92 -88q15 51 49 51q43 0 92 -82q22 54 53 54q24 0 72 -60q32 32 49 29l178 -17q74 -6 74 -55q0 -46 -74 -55l-159 -17q-27 -53 -64 -53q-22 0 -51 51q-30 -73 -70 -73q-23 0 -63 73q-35 -96 -78 -96q-31 0 -66 92 q-40 -116 -102 -116q-55 0 -82 116q-35 -133 -123 -215q-103 -92 -233 -92q-134 0 -224 101q-86 103 -86 264zM369 453q0 -52 47 -52q49 0 49 52q0 51 -49 51q-47 0 -47 -51z" />
<glyph unicode="&#x2000;" horiz-adv-x="799" />
<glyph unicode="&#x2001;" horiz-adv-x="1599" />
<glyph unicode="&#x2002;" horiz-adv-x="799" />
<glyph unicode="&#x2003;" horiz-adv-x="1599" />
<glyph unicode="&#x2004;" horiz-adv-x="533" />
<glyph unicode="&#x2005;" horiz-adv-x="399" />
<glyph unicode="&#x2006;" horiz-adv-x="266" />
<glyph unicode="&#x2007;" horiz-adv-x="266" />
<glyph unicode="&#x2008;" horiz-adv-x="199" />
<glyph unicode="&#x2009;" horiz-adv-x="319" />
<glyph unicode="&#x200a;" horiz-adv-x="88" />
<glyph unicode="&#x200c;" />
<glyph unicode="&#x200d;" />
<glyph unicode="&#x2010;" horiz-adv-x="542" d="M70 287v164h401v-164h-401z" />
<glyph unicode="&#x2011;" horiz-adv-x="542" d="M70 287v164h401v-164h-401z" />
<glyph unicode="&#x2012;" horiz-adv-x="542" d="M70 287v164h401v-164h-401z" />
<glyph unicode="&#x2013;" horiz-adv-x="741" d="M51 268v146h639v-146h-639z" />
<glyph unicode="&#x2014;" horiz-adv-x="1482" d="M51 268v146h1381v-146h-1381z" />
<glyph unicode="&#x2018;" horiz-adv-x="335" d="M72 530v207q0 91 53 153.5t139 74.5v-88q-90 -35 -90 -138h90v-209h-192z" />
<glyph unicode="&#x2019;" horiz-adv-x="335" d="M72 530v88q90 35 90 138h-90v209h192v-207q0 -91 -54 -153.5t-138 -74.5z" />
<glyph unicode="&#x201c;" horiz-adv-x="622" d="M72 530v207q0 91 53 153.5t139 74.5v-88q-90 -35 -90 -138h90v-209h-192zM358 530v207q0 91 53.5 153.5t139.5 74.5v-88q-90 -35 -90 -138h90v-209h-193z" />
<glyph unicode="&#x201d;" horiz-adv-x="622" d="M72 530v88q90 35 90 138h-90v209h192v-207q0 -91 -54 -153.5t-138 -74.5zM358 530v88q91 34 91 138h-91v209h193v-207q0 -91 -54 -153.5t-139 -74.5z" />
<glyph unicode="&#x2022;" horiz-adv-x="757" d="M72 410q0 127 90 217t217 90t217 -90q90 -93 90 -217t-90 -217q-88 -91 -217 -91t-217 91q-90 93 -90 217z" />
<glyph unicode="&#x2026;" horiz-adv-x="1101" d="M82 0v209h203v-209h-203zM449 0v209h202v-209h-202zM815 0v209h203v-209h-203z" />
<glyph unicode="&#x202f;" horiz-adv-x="319" />
<glyph unicode="&#x205f;" horiz-adv-x="399" />
<glyph unicode="&#x25fc;" horiz-adv-x="696" d="M0 0v696h696v-696h-696z" />
<glyph unicode="&#xf700;" horiz-adv-x="833" d="M-6 674q165 160 391 160q101 0 168 -33l63 90l191 -74l-105 -129q84 -113 84 -262q0 -184 -120 -307q-128 -125 -351 -125q-40 0 -63 2l-74 344h-90v164h254l68 -332q74 13 126 89t52 165q0 99 -62 164q-69 72 -178 72q-145 0 -233 -113z" />
<glyph unicode="&#xf701;" d="M-958 922v143h614v-143h-614z" />
<glyph unicode="&#xf702;" d="M-958 922v143h413v102h201v-245h-614z" />
<glyph unicode="&#xf703;" d="M-961 922v143h379q6 52 43.5 84.5t92.5 32.5q60 0 98.5 -37.5t38.5 -93.5t-38.5 -92.5t-98.5 -36.5h-515zM-498 1051q0 -52 52 -52q51 0 51 52q0 51 -51 51q-52 0 -52 -51z" />
<glyph unicode="&#xf704;" d="M-958 922v143h243v102h109v-102h61v102h201v-245h-614z" />
<glyph unicode="&#xf705;" d="M-565 922v245h200v-245h-200z" />
<glyph unicode="&#xf706;" d="M-596 1044v123h123q117 0 117 -98v-4h366v-143h-547v100q0 22 -20 22h-39z" />
<glyph unicode="&#xf707;" d="M-831 922v110q0 135 153 135h49l80 -53l74 53h49q150 0 150 -123v-12h237v-110h-410v104q0 18 -12 27l-88 -72l-100 72q-13 -10 -13 -25v-65l21 -41h-190z" />
<glyph unicode="&#xf708;" d="M-729 1008v125h102v86h201v-86h102v-125h-102v-86h-201v86h-102z" />
<glyph unicode="&#xf709;" d="M-565 963v63q0 143 162 143h161v-133h-65q-58 0 -58 -49v-24h-200z" />
<glyph unicode="&#xf70a;" d="M-283 922v245h201v-245h-201z" />
<glyph unicode="&#xf70b;" d="M-471 1044v123h123q117 0 117 -98v-4h251v-143h-432v100q0 22 -20 22h-39z" />
<glyph unicode="&#xf70c;" d="M-692 922v110q0 135 153 135h50l79 -53l74 53h49q150 0 150 -123v-12h114v-110h-286v104q0 17 -13 27l-88 -72l-100 72q-12 -9 -12 -25v-65l20 -41h-190z" />
<glyph unicode="&#xf70d;" d="M-467 1008v125h102v86h181v-86h102v-125h-102v-86h-181v86h-102z" />
<glyph unicode="&#xf70e;" d="M-358 922v63q0 143 161 143h162v-133h-65q-58 0 -58 -49v-24h-200z" />
<glyph unicode="&#xf70f;" horiz-adv-x="1378" d="M82 0v666q125 168 354 168q158 0 256.5 -76t98.5 -209v-270q0 -56 43.5 -90.5t107.5 -34.5q67 0 112.5 34.5t45.5 90.5v540h196v-549q0 -130 -102 -207q-106 -77 -252 -77t-252 77q-100 75 -100 207v265q0 59 -45 95t-115 36q-99 0 -147 -60v-442h127v-164h-328z" />
<glyph unicode="&#xf710;" d="M-651 922v245h200v-102h465v-143h-665z" />
<glyph unicode="&#xf711;" d="M-592 1047q0 57 41.5 96t104.5 39t104 -39t41 -96t-41.5 -96.5t-103.5 -39.5q-63 0 -104.5 39.5t-41.5 96.5zM-502 1047q0 -21 16.5 -36.5t39.5 -15.5t39 15.5t16 36.5t-16 36t-39 15t-39.5 -15.5t-16.5 -35.5z" />
<glyph unicode="&#xf712;" d="M-877 922v88q0 96 62 155.5t172 59.5h383v-103h-377q-45 0 -72.5 -24t-27.5 -56h73l109 60l104 -60h127v-120h-137l-94 55l-98 -55h-224z" />
<glyph unicode="&#xf713;" d="M-545 1229v205h201v-205h-201z" />
<glyph unicode="&#xf714;" d="M-633 1339v111h111q104 0 104 -88v-4h228v-129h-390v90q0 20 -18 20h-35z" />
<glyph unicode="&#xf715;" d="M-631 1229v98q0 123 139 123h46l71 -49l66 49h45q133 0 133 -111v-12h104v-98h-258v94q0 14 -12 23l-78 -64l-90 64q-12 -9 -12 -23v-57l18 -37h-172z" />
<glyph unicode="&#xf716;" d="M-629 1307v112h92v78h181v-78h92v-112h-92v-78h-181v78h-92z" />
<glyph unicode="&#xf717;" d="M-569 1147v57q0 129 145 129h145v-121h-59q-51 0 -51 -43v-22h-180z" />
<glyph unicode="&#xf718;" d="M-365 -369h283v-276h-201v153h-82v123z" />
<glyph unicode="&#xf719;" d="M-602 -369h237v-141q23 -10 41 -10q41 0 41 33v118h201v-143q0 -72 -76 -109q-67 -34 -159 -34q-148 0 -222 77v86h-63v123z" />
<glyph unicode="&#xf71a;" d="M-348 -492q0 50 39 86.5t94 36.5t94 -36.5t39 -86.5t-39 -86t-94 -36t-94 36t-39 86z" />
<glyph unicode="&#xf71d;" />
<glyph unicode="&#xf880;" />
<glyph horiz-adv-x="450" />
<glyph horiz-adv-x="622" d="M-592 1047q0 57 41.5 96t104.5 39t104 -39t41 -96t-41.5 -96.5t-103.5 -39.5q-63 0 -104.5 39.5t-41.5 96.5zM-502 1047q0 -21 16.5 -36.5t39.5 -15.5t39 15.5t16 36.5t-16 36t-39 15t-39.5 -15.5t-16.5 -35.5zM33 602v184q98 48 200 48q146 0 226 -86t80 -226v-522h-191 v504q0 147 -153 147q-86 0 -162 -49z" />
<glyph d="M-702 1057q0 56 53.5 97.5t128.5 47.5q-53 21 -53 76q0 79 84 130.5t221 51.5q60 0 112 -8v-119q-53 15 -110 15q-71 0 -119.5 -19.5t-48.5 -52.5q0 -40 80 -31v-106q-60 6 -133 -13q-78 -21 -78 -59q0 -33 57 -33q47 0 100 29l58 -98q-82 -43 -168 -43q-82 0 -133 37 t-51 98z" />
<glyph />
<glyph />
<glyph d="M-958 922v143h243v102h109v-102h61v102h201v-245h-614zM-627 1229v205h201v-205h-201z" />
<glyph d="M-907 922v143h676v-143h-676z" />
<glyph d="M-905 922v143h475v102h201v-245h-676z" />
</font>
</defs>
</svg>
